# xmcd
#
# Track frame offsets:
#	150
#	25860
#	45118
#	72666
#	94244
#	110466
#	148537
#	170566
#	193687
#	220745
#	254501
#	281510
#	312173
#
# Disc length: 4470 seconds
#
# Revision: 1
# Processed by: cddbd v1.5.2PL0 Copyright (c) Steve Scherf et al.
# Submitted via: audiograbber 1.83.01
#
DISCID=bc11740d
DTITLE=Eric Gales - The Story Of My Life
DYEAR=2008
DGENRE=Blues
TTITLE0=Save Yourself
TTITLE1=I Ain't No Shrink
TTITLE2=The Story Of My Life
TTITLE3=Layin' Down The Blues
TTITLE4=The Sound Of Electric Guitar
TTITLE5=Red, White And Blues
TTITLE6=Very Educated
TTITLE7=Cut And Run
TTITLE8=Borderline Personality
TTITLE9=You Ain't The boss Of Me
TTITLE10=Bringin' The Hammer Down
TTITLE11=You Don't Move Me
TTITLE12=Gypsy
EXTD=
EXTT0=
EXTT1=
EXTT2=
EXTT3=
EXTT4=
EXTT5=
EXTT6=
EXTT7=
EXTT8=
EXTT9=
EXTT10=
EXTT11=
EXTT12=
PLAYORDER=
